<?xml version="1.0" standalone="yes"?><!DOCTYPE svg PUBLIC "-//W3C//DTD SVG 1.1//EN" "http://www.w3.org/Graphics/SVG/1.1/DTD/svg11.dtd"[
<!ENTITY E7 'fill-rule:evenodd;opacity:1;stroke:none;fill:rgb(246,226,186);'><!ENTITY E18 'stroke-miterlimit:9;stroke-linecap:butt;opacity:1;stroke-width:1;fill:none;stroke-linejoin:miter;stroke:rgb(143,188,139);'><!ENTITY E17 'stroke-miterlimit:9;stroke-linecap:butt;opacity:1;stroke-width:1;fill:none;stroke-linejoin:miter;stroke:rgb(0,128,0);'><!ENTITY E5 'fill-rule:evenodd;opacity:1;stroke:none;fill:rgb(254,255,243);'><!ENTITY E9 'fill-rule:evenodd;opacity:1;stroke:none;fill:rgb(210,11,52);'><!ENTITY E11 'fill-rule:evenodd;opacity:1;stroke:none;fill:rgb(136,6,10);'><!ENTITY E4 'stroke-miterlimit:9;stroke-linecap:butt;opacity:1;stroke-width:2;fill:none;stroke-linejoin:miter;stroke:rgb(136,6,10);'><!ENTITY E2 'stroke-miterlimit:9;stroke-linecap:butt;opacity:1;stroke-width:2;fill:none;stroke-linejoin:miter;stroke:rgb(210,11,52);'>
]><svg id="SvgGdi_output" xmlns="http://www.w3.org/2000/svg" xmlns:xlink="http://www.w3.org/1999/xlink"><rect width="100.00%" x="0.00" y="0.00" height="100.00%" id="background" style="fill:rgb(240,240,240);" /><g id="root_group" style="shape-rendering:geometricPrecision;"><path style="&E2;" id="10" d="M 0 100 C NaN NaN NaN NaN 0 100 " /><line x1="250.00" x2="250.00" y2="390.00" id="11" style="&E4;" y1="400.00" /><line x1="252.00" x2="252.00" y2="390.00" id="12" style="&E2;" y1="400.00" /><line x1="250.00" x2="246.00" y2="360.00" id="13" style="&E4;" y1="390.00" /><line x1="252.00" x2="248.00" y2="360.00" id="14" style="&E2;" y1="390.00" /><line x1="246.00" x2="232.00" y2="334.00" id="15" style="&E4;" y1="360.00" /><line x1="248.00" x2="234.00" y2="334.00" id="16" style="&E2;" y1="360.00" /><line x1="232.00" x2="204.00" y2="323.00" id="17" style="&E4;" y1="334.00" /><line x1="234.00" x2="206.00" y2="323.00" id="18" style="&E2;" y1="334.00" /><line x1="204.00" x2="186.00" y2="299.00" id="19" style="&E4;" y1="323.00" /><line x1="206.00" x2="188.00" y2="299.00" id="20" style="&E2;" y1="323.00" /><path style="&E5;" id="21" d="M 185.5462 299.2214 C 178.4394 301.5488 185.9326 307.5858 174.886 302.7125 163.8394 297.8391 172.9161 299.1121 168.9763 291.9114 L 159.7724 263.5847 C 154.6232 242.8123 145.9761 242.8616 152.0486 232.4261 158.121 221.9905 157.6594 237.5945 168.881 247.9313 L 185.4509 255.2412 C 189.003 257.5438 184.6431 239.8107 190.779 258.6951 196.9149 277.5796 192.071 266.9861 194.6548 283.568 " /><path style="&E7;" id="22" d="M 185.5462 299.2214 C 178.4553 301.5254 168.9763 291.9114 164.3743 277.7481 159.7724 263.5847 161.7901 250.2353 168.881 247.9313 175.972 245.6273 185.4509 255.2412 190.0529 269.4046 194.6548 283.568 192.6371 296.9174 185.5462 299.2214 z " /><line x1="204.00" x2="195.00" y2="294.00" id="23" style="&E4;" y1="323.00" /><line x1="206.00" x2="197.00" y2="294.00" id="24" style="&E2;" y1="323.00" /><path style="&E9;" id="25" d="M 195 316 C 196.8333 313.1667 214.3333 316.5 216 320 217.6667 323.5 208.5 337.6667 205 337 201.5 336.3333 193.1667 318.8333 195 316 z " /><path style="&E11;" id="26" d="M 195 316 C 198.1667 315.3333 215.6667 318.6667 216 320 216.3333 321.3333 200.5 324.6667 197 324 193.5 323.3333 191.8333 316.6667 195 316 z " /><line x1="195.00" x2="188.00" y2="265.00" id="27" style="&E4;" y1="294.00" /><line x1="197.00" x2="190.00" y2="265.00" id="28" style="&E2;" y1="294.00" /><line x1="188.00" x2="184.00" y2="235.00" id="29" style="&E4;" y1="265.00" /><line x1="190.00" x2="186.00" y2="235.00" id="30" style="&E2;" y1="265.00" /><line x1="184.00" x2="173.00" y2="207.00" id="31" style="&E4;" y1="235.00" /><line x1="186.00" x2="175.00" y2="207.00" id="32" style="&E2;" y1="235.00" /><line x1="173.00" x2="167.00" y2="178.00" id="33" style="&E4;" y1="207.00" /><line x1="175.00" x2="169.00" y2="178.00" id="34" style="&E2;" y1="207.00" /><path style="&E5;" id="35" d="M 168.3777 170.8824 C 179.3262 170.4276 176.6932 162.3788 184.8005 170.2001 192.9077 178.0214 183.3798 174.3382 180.5386 182.6144 L 177.483 207.4996 C 177.3069 223.7979 186.9775 226.3195 177.2189 231.9471 167.4603 237.5748 172.4277 226.6118 162.8452 215.9411 L 150.6843 204.2091 C 151.8991 199.7856 150.4695 214.164 152.5065 197.5739 154.5435 180.9838 152.9176 191.4906 153.7398 179.3239 " /><path style="&E7;" id="36" d="M 168.3777 170.8824 C 175.7779 171.7911 180.5386 182.6144 179.0108 195.057 177.483 207.4996 170.2454 216.8497 162.8452 215.9411 155.4449 215.0324 150.6843 204.2091 152.2121 191.7665 153.7398 179.3239 160.9774 169.9738 168.3777 170.8824 z " /><line x1="188.00" x2="164.00" y2="246.00" id="37" style="&E4;" y1="265.00" /><line x1="190.00" x2="166.00" y2="246.00" id="38" style="&E2;" y1="265.00" /><path style="&E9;" id="39" d="M 164 259 C 162 259.3333 147 250.1667 146 248 145 245.8333 155 244.1667 158 246 161 247.8333 166 258.6667 164 259 z " /><path style="&E11;" id="40" d="M 164 259 C 160.8333 259.6667 145.8333 250.5 146 248 146.1667 245.5 162 242.1667 165 244 168 245.8333 167.1667 258.3333 164 259 z " /><line x1="164.00" x2="146.00" y2="222.00" id="41" style="&E4;" y1="246.00" /><line x1="166.00" x2="148.00" y2="222.00" id="42" style="&E2;" y1="246.00" /><line x1="146.00" x2="138.00" y2="209.00" id="43" style="&E17;" y1="222.00" /><line x1="146.00" x2="138.00" y2="209.00" id="44" style="&E18;" y1="222.00" /><path style="&E9;" id="45" d="M 138 209 C 135.3333 210.1667 142.8333 231.8333 147 235 151.1667 238.1667 164.5 232.3333 163 228 161.5 223.6667 140.6667 207.8333 138 209 z " /><path style="&E11;" id="46" d="M 138 209 C 141.5 209.8333 149 231.5 147 235 145 238.5 127.5 234.3333 126 230 124.5 225.6667 134.5 208.1667 138 209 z " /><line x1="146.00" x2="147.00" y2="192.00" id="47" style="&E4;" y1="222.00" /><line x1="148.00" x2="149.00" y2="192.00" id="48" style="&E2;" y1="222.00" /><line x1="147.00" x2="148.00" y2="177.00" id="49" style="&E17;" y1="192.00" /><line x1="147.00" x2="148.00" y2="177.00" id="50" style="&E18;" y1="192.00" /><path style="&E9;" id="51" d="M 148 177 C 150.6667 176.8333 141.5 156.8333 137 153 132.5 149.1667 119.1667 150 121 154 122.8333 158 145.3333 177.1667 148 177 z " /><path style="&E11;" id="52" d="M 148 177 C 145.5 175.5 136.3333 155.5 137 153 137.6667 150.5 150.1667 158 152 162 153.8333 166 150.5 178.5 148 177 z " /><line x1="147.00" x2="151.00" y2="162.00" id="53" style="&E4;" y1="192.00" /><line x1="149.00" x2="153.00" y2="162.00" id="54" style="&E2;" y1="192.00" /><line x1="151.00" x2="178.00" y2="149.00" id="55" style="&E4;" y1="162.00" /><line x1="153.00" x2="180.00" y2="149.00" id="56" style="&E2;" y1="162.00" /><path style="&E5;" id="57" d="M 191.4346 148.5618 C 196.0089 166.431 201.9721 166.0867 198.2961 175.3657 194.62 184.6447 194.1709 171.0706 185.9206 162.4803 L 169.9933 163.5941 C 162.5153 173.2841 163.7079 186.8063 158.7763 178.1292 153.8446 169.4521 160.0495 168.9456 162.5959 150.5784 L 168.1099 136.6598 C 173.7253 144.2867 165.9148 148.8426 176.533 148.1001 187.1511 147.3576 179.0344 143.9154 184.0371 135.5461 " /><path style="&E7;" id="58" d="M 191.4346 148.5618 C 191.9547 155.9995 185.9206 162.4803 177.957 163.0372 169.9933 163.5941 163.116 158.0161 162.5959 150.5784 162.0758 143.1407 168.1099 136.6598 176.0735 136.103 184.0371 135.5461 190.9146 141.1241 191.4346 148.5618 z " /><line x1="147.00" x2="165.00" y2="168.00" id="59" style="&E4;" y1="192.00" /><line x1="149.00" x2="167.00" y2="168.00" id="60" style="&E2;" y1="192.00" /><path style="&E9;" id="61" d="M 154 187 C 151.5 190.3333 143.1667 201.1667 144 200 144.8333 198.8333 157.3333 182.1667 159 180 160.6667 177.8333 156.5 183.6667 154 187 z " /><path style="&E11;" id="62" d="M 154 187 C 155.8333 188 147.5 198.8333 144 200 140.5 201.1667 131.3333 196.1667 133 194 134.6667 191.8333 152.1667 186 154 187 z " /><line x1="165.00" x2="171.00" y2="139.00" id="63" style="&E4;" y1="168.00" /><line x1="167.00" x2="173.00" y2="139.00" id="64" style="&E2;" y1="168.00" /><line x1="171.00" x2="163.00" y2="110.00" id="65" style="&E4;" y1="139.00" /><line x1="173.00" x2="165.00" y2="110.00" id="66" style="&E2;" y1="139.00" /><line x1="163.00" x2="160.00" y2="80.00" id="67" style="&E4;" y1="110.00" /><line x1="165.00" x2="162.00" y2="80.00" id="68" style="&E2;" y1="110.00" /><line x1="160.00" x2="152.00" y2="51.00" id="69" style="&E4;" y1="80.00" /><line x1="162.00" x2="154.00" y2="51.00" id="70" style="&E2;" y1="80.00" /><path style="&E9;" id="71" d="M 155 70 C 155.8333 68.16666 170 69.83333 172 72 174 74.16666 169.8333 83.33333 167 83 164.1667 82.66666 154.1667 71.83333 155 70 z " /><path style="&E11;" id="72" d="M 155 70 C 157.3333 68.5 171.5 70.16666 172 72 172.5 73.83333 160.8333 81.33333 158 81 155.1667 80.66666 152.6667 71.49999 155 70 z " /><path style="&E5;" id="73" d="M 158.367 56.60896 C 152.538 67.46685 160.2778 69.79868 149.6235 72.89581 138.9692 75.99292 147.2108 69.0154 142.3856 61.25466 L 123.4628 46.47054 C 109.6015 39.63174 102.2432 47.2994 102.6708 36.21236 103.0984 25.1253 109.8153 34.08822 124.1042 29.83995 L 140.0856 25.19424 C 142.58 29.68111 131.212 22.06849 143.8273 31.92458 156.4424 41.78064 148.8876 34.60916 159.0085 39.97837 " /><path style="&E7;" id="74" d="M 158.367 56.60896 C 153.7767 62.48425 142.3856 61.25466 132.9242 53.8626 123.4628 46.47054 119.514 35.71524 124.1042 29.83995 128.6945 23.96467 140.0856 25.19424 149.547 32.58631 159.0085 39.97837 162.9573 50.73368 158.367 56.60896 z " /><line x1="160.00" x2="169.00" y2="51.00" id="75" style="&E4;" y1="80.00" /><line x1="162.00" x2="171.00" y2="51.00" id="76" style="&E2;" y1="80.00" /><path style="&E9;" id="77" d="M 160 59 C 161.6667 58.33333 172.5 51.66666 173 51 173.5 50.33333 165.1667 53.66666 163 55 160.8333 56.33333 158.3333 59.66666 160 59 z " /><path style="&E11;" id="78" d="M 160 59 C 161.8333 57.83333 172.6667 51.16666 173 51 173.3333 50.83333 164.1667 56.66666 162 58 159.8333 59.33333 158.1667 60.16666 160 59 z " /><path style="&E5;" id="79" d="M 172.9671 38.12619 C 191.998 39.78429 193.9183 34.18512 201.5134 40.61334 209.1084 47.04157 195.7955 42.99842 184.3597 47.76852 L 180.2953 62.93709 C 187.7174 73.14616 201.2201 76.48125 191.4285 78.25069 181.6369 80.02017 182.8216 74.0309 165.6079 65.59129 L 154.2153 55.94898 C 163.8932 53.31597 166.0226 62.11182 168.7322 51.99945 171.4418 41.88709 165.248 48.25978 158.2797 40.78041 " /><path style="&E7;" id="80" d="M 172.9671 38.12619 C 180.1689 40.0559 184.3597 47.76852 182.3275 55.35279 180.2953 62.93709 172.8097 67.521 165.6079 65.59129 158.4061 63.66158 154.2153 55.94898 156.2475 48.36469 158.2797 40.78041 165.7654 36.19648 172.9671 38.12619 z " /></g><defs id="clips_hatches_and_gradients" /></svg>